# xmcd
#
# Track frame offsets:
#	150
#	18441
#	30451
#	43625
#	58434
#	71354
#	83657
#	97742
#	111362
#	125220
#	139163
#	154543
#
# Disc length: 2242 seconds
#
# Revision: 1
# Processed by: cddbd v1.5.2PL0 Copyright (c) Steve Scherf et al.
# Submitted via: audiograbber 1.83.01
#
DISCID=9c08c00c
DTITLE=Charles Brown - Sunshine in my life
DYEAR=1900
DGENRE=Blues
TTITLE0=Driftin' blues
TTITLE1=Trouble blues
TTITLE2=Rockin' blues
TTITLE3=Baby let me hold your hand
TTITLE4=Big legged woman
TTITLE5=Livin' in misery
TTITLE6=Black night
TTITLE7=Merry Christmas, Baby
TTITLE8=It's getting to be evening
TTITLE9=Let the sunshine in my life
TTITLE10=Counting my tears
TTITLE11=I want a GIR-L
EXTD=
EXTT0=
EXTT1=
EXTT2=
EXTT3=
EXTT4=
EXTT5=
EXTT6=
EXTT7=
EXTT8=
EXTT9=
EXTT10=
EXTT11=
PLAYORDER=
